<svg width="151" height="151" viewBox="0 0 151 151" fill="none" xmlns="http://www.w3.org/2000/svg">
<g clip-path="url(#clip0_1600_170)">
<rect width="151" height="151" rx="40" fill="#FF4704"/>
<rect x="32.7167" y="60.3999" width="66.0625" height="54.1083" fill="#FFC165"/>
<path d="M66.4405 28.0201C67.8117 26.4682 70.3589 27.6777 70.023 29.7211L65.2791 58.5798C65.1152 59.5769 64.2534 60.3086 63.243 60.3086H42.4885C40.7109 60.3086 39.7651 58.2109 40.9421 56.8788L66.4405 28.0201Z" fill="#212121"/>
<path d="M96.619 28.0201C97.9902 26.4682 100.537 27.6777 100.202 29.7211L95.4577 58.5798C95.2938 59.5769 94.4319 60.3086 93.4215 60.3086H72.667C70.8894 60.3086 69.9436 58.2109 71.1206 56.8788L96.619 28.0201Z" fill="#212121"/>
<line x1="105.74" y1="101.274" x2="117.948" y2="98.0025" stroke="#313131" stroke-width="2.06349"/>
<line y1="-1.03174" x2="12.6389" y2="-1.03174" transform="matrix(-0.965926 -0.258819 -0.258819 0.965926 27.9374 102.27)" stroke="#313131" stroke-width="2.06349"/>
<line x1="106.28" y1="106.774" x2="118.467" y2="110.126" stroke="#313131" stroke-width="2.06349"/>
<line y1="-1.03174" x2="12.6389" y2="-1.03174" transform="matrix(-0.964182 0.265241 0.265241 0.964182 27.9374 107.769)" stroke="#313131" stroke-width="2.06349"/>
<path fill-rule="evenodd" clip-rule="evenodd" d="M47.8422 54.634C32.5284 54.634 20.1141 67.0483 20.1141 82.3622V90.8741C20.1141 106.188 32.5284 118.602 47.8422 118.602H85.2429C100.557 118.602 112.971 106.188 112.971 90.8741V82.3622C112.971 67.0483 100.557 54.634 85.2429 54.634H47.8422ZM60.61 80.8147C60.61 80.8147 55.8653 87.077 49.5188 88.7764V79.912C49.5188 78.2026 48.133 76.8168 46.4236 76.8168C44.7141 76.8168 43.3284 78.2026 43.3284 79.912V88.7765C36.9819 87.077 32.2371 80.8147 32.2371 80.8147C32.2371 80.8147 38.5886 72.4317 46.4236 72.4317C54.2585 72.4317 60.61 80.8147 60.61 80.8147ZM88.4671 88.7765C94.8136 87.0771 99.5584 80.8148 99.5584 80.8148C99.5584 80.8148 93.2069 72.4318 85.3719 72.4318C77.5369 72.4318 71.1854 80.8148 71.1854 80.8148C71.1854 80.8148 75.9302 87.0771 82.2767 88.7765V79.9121C82.2767 78.2027 83.6625 76.8169 85.3719 76.8169C87.0814 76.8169 88.4671 78.2027 88.4671 79.9121V88.7765ZM45.4577 94.836C45.0063 94.0937 44.0387 93.8579 43.2965 94.3093C42.5542 94.7606 42.3184 95.7282 42.7698 96.4704C44.5198 99.3484 47.8943 103.075 52.4132 104.785C56.6443 106.386 61.6788 106.138 66.9448 102.226C72.2108 106.138 77.2453 106.386 81.4764 104.785C85.9953 103.075 89.3698 99.3484 91.1198 96.4704C91.5712 95.7282 91.3353 94.7606 90.5931 94.3093C89.8509 93.8579 88.8833 94.0937 88.4319 94.836C86.9141 97.332 84.0224 100.458 80.3631 101.843C76.95 103.134 72.6531 103 67.7641 98.8613L68.6344 98.0037C69.3223 97.3257 68.8422 96.1547 67.8764 96.1547H65.3962C64.4303 96.1547 63.9503 97.3257 64.6382 98.0037L65.7906 99.1394C61.0402 103.006 56.8615 103.105 53.5265 101.843C49.8672 100.458 46.9755 97.332 45.4577 94.836Z" fill="#212121"/>
<path d="M44.1388 130.44C44.1388 121.672 51.2468 114.564 60.0148 114.564H89.8171L102.908 151.051H49.7093C46.6328 151.051 44.1388 148.557 44.1388 145.48V130.44Z" fill="#212121"/>
<path fill-rule="evenodd" clip-rule="evenodd" d="M121.387 84.5989C123.938 83.253 127.097 84.2299 128.443 86.7809C132.711 94.8701 136.808 107.895 134.568 120.57C133.428 127.023 130.632 133.411 125.381 138.855C120.144 144.284 112.733 148.499 102.791 151.066L99.0085 140.327C107.479 138.14 114.225 135.376 117.863 131.604C121.487 127.847 123.455 123.439 124.283 118.752C125.98 109.151 122.835 98.5344 119.205 91.6547C117.859 89.1037 118.836 85.9447 121.387 84.5989Z" fill="#212121"/>
</g>
<defs>
<clipPath id="clip0_1600_170">
<rect width="151" height="151" rx="40" fill="white"/>
</clipPath>
</defs>
</svg>
